#N canvas 158 34 643 536 10;
#X msg 63 63 connect localhost 8004;
#X obj 97 171 netsend;
#X floatatom 84 208 5 0 0 0 - - -;
#X msg 106 110 send value \$1;
#X floatatom 225 80 5 0 0 0 - - -;
#X connect 0 0 1 0;
#X connect 1 0 2 0;
#X connect 3 0 1 0;
#X connect 4 0 3 0;
